<?xml version="1.0" encoding="UTF-8"?>
<svg id="Calque_2" data-name="Calque 2" xmlns="http://www.w3.org/2000/svg" viewBox="0 0 548.5 142.72">
  <defs>
    <style>
      .cls-1 {
        fill: #202baa;
      }

      .cls-1, .cls-2, .cls-3 {
        stroke-width: 0px;
      }

      .cls-2 {
        fill: #ffffff;
      }

      .cls-3 {
        fill: #2b30a3;
      }
    </style>
  </defs>
  <g id="Calque_1-2" data-name="Calque 1">
    <g>
      <path class="cls-3" d="M57.38,73.38c5.39,4.79,10.78,9.73,16.47,14.37,4.34,3.74,8.98,7.19,14.67,8.83.3,1.5.45,2.84.75,4.19-.9.45-1.65.75-2.54,1.2.45.45.75.9,1.35,1.2.9.6,2.4.6,2.4,2.25,0,1.2-1.05,2.1-3.14,2.1-2.1.15-4.34.45-6.59.3-1.8-.15-3.59-.6-5.24-1.35-7.49-3.29-14.97-6.59-22.31-10.03-2.25-1.05-4.19-2.7-6.14-4.04-1.8-1.35-3.59-2.7-5.24-4.04-2.25,1.8-2.25,4.04-2.54,6.29-.3,2.25-1.35,4.04-3.74,5.24-.75-2.1-1.35-4.04-2.1-6.14-.45,1.95-.9,3.74-1.35,5.39-2.69,0-3.89-1.35-4.34-3.74-.6-3.14-1.5-6.14-2.4-9.43-2.99.15-4.64,2.1-6.89,2.99-2.1.75-4.19,1.65-6.44,2.54-2.4-2.69-6.59-1.8-8.53-5.09,1.35-2.69,2.4-5.24,3.74-7.63.6-1.2,1.65-2.25,2.69-3.14,2.25-1.65,4.79-3.14,7.19-4.79l4.49-3.14c1.8-1.5,2.99-3.14,2.69-5.69-.15-1.95,0-3.74,0-5.54-.3-7.64-.3-15.12.6-22.61.15-1.5,0-2.84,0-5.39-1.95,3.74-1.65,6.89-1.8,9.73-.3,3.29,0,6.59-.15,9.88,0,2.84,0,5.84-.9,8.83-2.69-8.38-1.05-16.92-2.1-25.75-1.2.3-2.25.3-2.99.75-2.25,1.35-4.34,2.84-6.44,4.49-1.5.9-2.84,1.5-4.64.9-.9-.45-1.95,0-2.99-.15-1.8-.3-3.14-2.1-2.84-3.89.9-6.59,3.44-12.13,9.13-15.87,2.4-1.5,4.79-3.29,7.19-4.79,2.69-1.8,5.99-2.84,7.34-6.14,3.14-.9,4.64-3.89,7.19-5.69,1.05-.75,2.1-1.35,3.14.15.3.15.75.6,1.05.45,2.99-1.35,5.69,1.35,8.83.75,3.89-.6,8.23-.45,12.13,0,3.29.45,6.44,1.5,9.28,2.99,5.24,2.99,10.93,5.69,14.82,10.63.9,1.2,2.1,2.54,2.54,3.89,1.95,5.84,2.1,11.68,1.05,17.52-1.95,11.08-8.23,19.31-16.47,26.35-2.69,2.25-5.69,4.04-7.34,7.33-.45.75-1.95,1.05-2.84,1.5.15.6.15.9.3,1.05ZM53.19,44.79c1.65-1.8,3.14-4.04,3.59-6.29.45-2.69,1.8-4.94,2.69-7.34.45-1.05.9-2.1,1.35-3.14-1.65-1.65-3.44-2.69-4.64-4.34-3.14-4.19-7.19-3.59-11.38-2.4-1.05.3-1.95.75-3.14,1.35-.75,10.03-.75,20.36-1.05,31.89,5.39-3.44,9.28-6.29,12.58-9.73ZM51.24,4.37h2.99c-.9-.75-1.8-1.35-2.99,0Z"/>
      <path class="cls-2" d="M134.18,98.53c-5.09,5.54-11.68,8.08-19.16,6.44-11.38-2.4-19.61-10.33-20.06-22.46-.3-10.63,1.95-20.66,7.34-29.94,1.65-2.84,3.89-5.54,6.14-7.93,1.35-1.5,3.29-2.84,5.24-3.29,1.95-.45,3.44-1.2,4.34-3.74-.15,0-.75-.6-.9-1.2-.15-.75.15-1.8.6-2.1.75-.75,1.95-1.2,2.99-1.35,4.64-.15,8.98.45,12.58,3.74,3.29,3.14,6.44,6.59,9.58,10.03.15.15.15.3.3.45.3.6,1.05,1.35,1.05,2.1,0,4.34,3.29,7.63,3.44,11.83.15,2.4-.15,4.79-.15,7.19,0,.15-.3.45-.45.75-.3-2.84.45-5.99-1.65-9.13v11.68c.75-1.2,1.2-1.95,1.65-2.7,0,11.68-5.24,21.41-12.87,29.64ZM101.24,78.77v-1.35h-.3v1.35h.3ZM108.73,68.74c-1.5,4.34-1.95,8.83-1.65,13.32.3,2.54,1.2,4.64,2.84,6.44,2.69,2.99,4.49,3.29,8.08,1.5.9-.45,1.65-1.05,2.4-1.5,6.89-5.24,10.63-12.43,12.28-20.66,1.35-7.04.15-14.07-4.34-20.06-.9-1.35-1.8-2.69-2.84-3.89-.45-.6-1.05-1.2-1.65-1.65-1.35-1.05-2.4-.75-3.44.45.15,1.8.3,3.74.45,5.54-5.69,6.29-9.58,13.02-12.13,20.51ZM112.17,102.57c2.84,1.65,3.59,1.8,5.24,1.05.3-.15.45-.75.75-1.05.9.45,1.8.9,3.29,0h-9.28ZM138.82,64.4v-.3l-.3.15.3.15Z"/>
      <path class="cls-2" d="M167.26,41.2c1.2-1.05,2.69-1.95,4.19-2.54,2.84-1.35,5.84-2.25,8.83-3.59,3.59-1.65,7.04-1.35,10.33.75,1.5.75,3.14.6,4.64,2.4,1.65,2.1,2.4,3.89,2.1,6.44-.75,7.19-.9,14.37-.3,21.71,0,.3-.15.75-.3,1.05q-1.5.9-6.14.45c-4.04-4.34-4.94-9.88-5.99-15.72-1.05.45-1.95.75-2.4,1.35-5.99,7.19-10.93,15.12-13.32,24.25-.75,2.25-.9,4.64-.75,7.04,0,3.29,1.05,4.49,4.19,4.79,5.69.45,11.08-.3,16.17-3.14,1.05-.75,2.1-1.5,2.99-2.1,1.8.3,3.29.6,5.09.9-.6,1.8.9,2.99,2.25,4.49-4.49,7.19-10.63,11.83-19.01,12.58-4.49.45-8.98.75-13.32.6-6.74-.15-11.98-5.39-12.72-12.43-.3-2.69,0-5.24-.15-7.78,0-1.05-.15-2.1-.3-3.59-1.5,1.95-.9,3.59-.9,5.24v5.09c-1.8-.15-1.65-1.5-1.65-2.4-.45-6.14.6-12.13,1.2-18.26.75-6.29,3.14-11.68,7.04-16.77l.15-.15c.6-.9,1.2-1.8,1.8-2.69,1.8-1.95,3.74-4.04,5.54-5.99.3-.6.3-1.65.75-1.95ZM190.16,48.68c-.75,3.89-1.05,7.93,1.35,11.68-.45-3.89-.9-7.78-1.35-11.68Z"/>
      <path class="cls-2" d="M219.5,10.06c.9,1.2,1.65,1.95,1.8,2.69.9,3.74.9,7.49.6,11.23-1.05,10.93-1.8,21.86-2.69,32.79-.15,1.35,0,2.7,0,4.49,1.2-.45,2.1-.6,2.54-1.05,4.94-4.34,9.88-8.83,14.82-13.17,1.35-1.2,2.69-2.25,3.89-3.29,2.54-1.95,5.39-2.69,8.53-2.1,1.05.15,1.95.3,3.14.45,0,1.05.15,1.95.15,2.69-.15.75-.9,1.8-.75,2.4,1.65,3.29-.9,4.94-2.55,6.89-2.99,3.59-5.84,7.04-8.68,10.63-1.65,1.95-3.14,3.89-4.79,5.99.45.6.75,1.2,1.2,1.65,2.25,2.25,4.34,4.79,6.59,7.04,4.04,4.04,8.23,8.08,13.77,10.33,1.2.45,2.54.9,3.44,1.8.9.9,1.35,2.25,1.95,3.44.3.3.6.6.9,1.05-.75.3-1.35.45-2.25.9.45.3.75.6,1.05.9,1.05,1.05,1.2,1.8.3,2.39-1.2,1.05-2.54,1.5-4.19,1.35-4.94-.45-9.73-1.05-14.22-3.44-4.19-2.4-8.98-3.89-13.77-5.09-1.5-.45-2.99-1.35-4.34-2.25-1.65-.9-3.14-2.25-4.64-3.29-1.35-.9-2.4-.75-3.59.6-.3.45-.6,1.2-.9,1.65,0,0-1.35-.3-1.65-.45-.3,4.49.75,8.68.6,13.02-.3.3-.45.75-.6.9-4.49,3.14-4.79,2.99-5.39-2.54-.3-2.99-.6-5.99-1.35-8.98-1.2,3.14.3,6.59-.45,10.78-1.8-2.7-1.95-4.64-2.1-6.59-.6-7.79-1.2-15.42-1.8-23.2-.45-4.79-.9-9.43-1.2-14.22-.75-13.17.15-26.35,2.4-39.52.45-2.99,1.05-5.99,1.5-8.98.15-1.5,1.05-2.4,2.1-3.29,1.95.75,2.84-1.05,4.19-1.65,1.8-.75,4.34,1.05,4.64,2.84.15,1.95.15,3.89.3,5.99h.6c.3-1.05.6-2.1.9-3.74ZM207.38,62.45c-.3,3.74-.15,7.79-.15,11.68,0,.6.3,1.05.45,1.8.45-.3.6-.3.6-.45v-26.05c-.3,3.89-.75,8.38-.9,13.02ZM215.46,46.29c-.45,5.84-.6,11.68-.75,17.52,0,.3.45.45,1.05.9.45-6.29.15-12.28-.3-18.41Z"/>
      <path class="cls-3" d="M316.96,41.64c-.6,2.84-1.05,5.54-1.5,8.38-.45,2.4-.9,4.79-1.35,7.04-1.35.6-2.4,1.2-3.44,1.65-1.5-.9-3.74-.9-2.99-3.44.45-4.49.75-8.98,1.35-14.22-2.55,5.09-2.1,9.58-1.35,14.22-.6.15-1.35.3-1.5.6-.45.75-.6,1.8-1.05,2.99-2.7-1.65-4.34-3.59-4.64-6.29-.3-2.1-.6-4.34-.3-6.29,1.5-7.78,3.29-15.57,4.94-23.5,0-.3-.15-.6-.15-.9v-.6.6c.15.3.15.6.15.9-.9-.75-1.65-1.65-2.54-2.54-.9.15-1.8.3-2.4.6-5.99,3.59-11.23,7.78-15.27,13.17-3.29,4.19-4.34,9.13-4.34,14.07,0,4.04,2.1,7.49,5.09,10.18s6.59,4.64,10.18,6.29c2.54,1.2,5.24,2.25,7.79,3.44,2.4,1.2,4.94,2.54,7.19,4.19,5.84,4.49,5.84,12.58,0,17.22-2.4,1.95-5.24,3.59-8.08,4.94-4.64,2.25-9.58,4.19-14.52,6.14-4.04,1.65-8.38,2.84-12.87,3.29-1.5.15-3.29,0-4.79-.15-2.69-.45-4.34-2.69-3.89-5.09,1.2-5.39,3.44-10.18,8.08-13.77,2.39-1.95,4.79-3.44,8.23-2.54.6.15,1.2.15,2.25.15-.45,1.2-.6,2.25-1.2,3.14-1.95,2.4-4.04,4.64-6.14,7.04-.6.75-1.05,1.65-1.8,2.69,1.65.6,2.54,2.99,4.49.15.9-1.5,3.44-1.95,5.24-2.7,4.34-2.1,8.53-4.49,12.13-7.63,1.05-.9,1.8-1.95,2.99-3.29-1.35-.75-2.1-1.5-3.14-1.95-2.25-1.05-4.49-1.95-6.74-2.84-6.74-2.99-12.58-6.89-17.67-11.98-6.74-6.74-8.53-14.67-5.84-23.5,1.65-4.94,3.89-9.73,7.19-13.92,7.33-9.58,16.47-17.07,27.69-22.01,1.95-.75,3.74-1.65,5.39-2.69,3.44-1.8,7.04-2.99,11.38-2.4.75.9,1.5,2.1,2.54,2.84,1.05.9,1.8,1.95,2.1,3.29.3,1.05,1.05,2.1,1.8,2.84,2.25,2.54,2.99,5.54,2.25,8.68-.75,3.29-1.65,6.74-2.84,9.88-1.95,5.69-4.34,11.23-6.59,17.37-.15-1.95-.3-3.29-.3-4.79.75-.9,1.35-1.8.3-2.99-.3.6-.45,1.05-.45,1.5-.15.6.15,1.05.15,1.65-.45.3-1.2.6-1.2.9ZM318.61,1.82c-1.2-.9-2.1-1.65-3.74-.15,1.2.9,2.1,1.5,3.74.15ZM322.95,17.69c0,.15.15.3.3.45.15-.15.6-.3.6-.6,0-.45-.15-.9-.45-2.25-.3,1.35-.45,1.8-.45,2.4Z"/>
      <path class="cls-2" d="M327.14,81.62c-.9-1.95,1.5-1.35,1.95-2.39.3-.75.9-1.95,1.65-2.1,1.95-.75,2.1-2.1,2.1-3.44-.15-5.54-.3-11.08-.45-16.62-2.84-.75-5.54-1.65-8.38-2.4.75-4.34,1.95-8.23,5.54-11.23,1.35-1.05,1.95-2.54,2.1-4.19.3-2.54.9-4.94,1.65-7.34.45-1.35,1.35-2.4,2.4-4.04,1.2.9,2.1,1.35,2.99,1.95,4.49-1.5,4.94-1.5,8.98,3.14,1.2-.15,2.7-.3,3.89-.6,5.69-1.5,11.38-1.8,17.07-1.35,11.38,1.05,19.01,8.08,20.21,17.67,1.05,8.23-2.4,14.97-9.28,20.51-5.39,4.19-11.38,7.49-18.11,9.88-2.25.75-4.79.9-7.19,1.35-4.94,1.05-5.24,1.35-5.69,5.54-.45,7.93-1.05,15.72-1.65,23.5-.15,2.39-.6,4.94-1.05,7.33-.15,1.35-1.2,2.25-3.14,2.4-1.05-1.8-.75-3.74-.9-5.54v-24.1c0-1.05-.3-2.25-.3-3.44-1.95.45-1.5,1.5-1.5,2.25,0,8.23.15,16.32.15,24.55,0,1.8.3,3.89-.9,5.69-1.8.15-2.84-.6-2.99-2.1-.45-3.14-.9-6.29-1.2-9.43-.45-5.69-.75-11.38-1.2-17.07-.15-1.95-.6-3.89-.9-5.84-2.54-1.05-4.34-1.95-5.84-2.54ZM341.21,72.78c-.15-6.74-.3-12.58-.45-18.41-1.35,9.43-1.2,13.32.45,18.41ZM362.02,63.95c3.29-2.99,5.84-6.29,7.19-10.33.3-1.35.6-2.84.3-4.19-.3-1.5-1.35-2.99-2.1-4.34-2.69-.6-4.79-2.84-7.93-2.1-2.7.75-5.39,1.65-7.93,2.54-2.54.9-3.74,2.4-3.59,4.94.45,5.99.45,11.98.75,18.11,0,.6.3,1.35.6,2.25,5.84-.75,9.28-3.89,12.72-6.89Z"/>
      <path class="cls-2" d="M404.99,74.58c5.69-3.29,11.38-6.59,17.07-10.03.45-.3.75-.6,1.5-1.2.75-4.94.15-10.03.3-14.97-1.95-1.05-3.14-.3-4.34.15-4.79,2.25-9.58,4.49-14.22,6.74-2.69,1.2-5.54,1.5-8.38,1.5-1.35,0-1.95-.75-1.95-2.4,0-.6.15-1.35,0-1.8-1.05-2.69,0-4.34,1.95-6.14,6.89-6.44,14.97-11.08,23.2-15.27,2.54-1.2,5.69-1.2,8.53-1.5,1.65,0,2.99,1.05,4.34,2.25,2.4,1.95,2.99,5.24,5.54,7.04.6,2.99,1.35,5.99,1.65,8.98,0,2.1-.75,4.19-1.5,6.29-.3-2.25-.45-4.64-.75-7.78-.6,1.35-.9,1.8-.9,2.25-.45,13.02-.45,26.05.15,39.07.15.9.45,1.95.6,2.84,1.35.6,2.69.9,3.89,1.65,1.95,1.05,1.95,3.29-.15,4.79-.75.6-1.05.9-.75,1.95.15.3-.75.9-1.2,1.35-1.95,1.35-4.19,1.35-6.29,1.65-.45.15-.9-.15-1.35,0-2.99.6-5.99,1.5-8.98,1.8-2.99.45-5.99-.3-8.98,1.05-1.2.45-2.69.45-4.04.45-6.44-.15-12.87.15-19.16-.6-6.89-.6-7.63-1.8-8.23-9.13-.15-3.74,1.2-6.89,5.24-8.23,2.1-.75,3.44-2.7,4.64-4.49,1.5.3,2.39-.75,3.29-1.8.15-.15.45-.3.75-.45,1.35-.9,2.69-1.95,4.04-2.99,1.2-.6,2.54-1.05,3.14-2.54.45-.15,1.05-.15,1.35-.45ZM405.73,91.8c1.5.3,1.95.6,2.4.6,2.4-.15,4.64-.3,6.89-.45-2.7-.45-5.54-1.05-9.28-.15ZM425.49,80.27c-.15-.75-.3-1.65-1.65-1.95-4.49,2.69-8.83,5.69-12.88,9.28-.15.15,0,.9-.15,1.65,4.94,0,9.73.15,14.97-.45.6-3.14,0-5.84-.3-8.53ZM412.62,98.98h3.29v-.15h-3.29v.15ZM426.39,90.45h-4.64c1.2.75,2.54,1.2,4.64,0ZM429.99,77.72c0,3.14.15,6.29.3,9.43.6-2.99.75-5.99.75-8.98-.15-.6-.3-1.2-.45-2.7-.45,1.35-.6,1.8-.6,2.25ZM430.14,58.26c.45-2.1.9-4.19,0-6.29v6.29Z"/>
      <path class="cls-2" d="M462.62,41.2c1.2-1.05,2.69-1.95,4.19-2.54,2.84-1.35,5.84-2.25,8.83-3.59,3.59-1.65,7.04-1.35,10.33.75,1.5.75,3.14.6,4.64,2.4,1.65,2.1,2.4,3.89,2.1,6.44-.75,7.19-.9,14.37-.3,21.71,0,.3-.15.75-.3,1.05q-1.5.9-6.14.45c-4.04-4.34-4.94-9.88-5.99-15.72-1.05.45-1.95.75-2.4,1.35-5.99,7.19-10.93,15.12-13.32,24.25-.75,2.25-.9,4.64-.75,7.04,0,3.29,1.05,4.49,4.19,4.79,5.69.45,11.08-.3,16.17-3.14,1.05-.75,2.1-1.5,2.99-2.1,1.8.3,3.29.6,5.09.9-.6,1.8.9,2.99,2.25,4.49-4.49,7.19-10.63,11.83-19.01,12.58-4.49.45-8.98.75-13.32.6-6.74-.15-11.98-5.39-12.72-12.43-.3-2.69,0-5.24-.15-7.78,0-1.05-.15-2.1-.3-3.59-1.5,1.95-.9,3.59-.9,5.24v5.09c-1.8-.15-1.65-1.5-1.65-2.4-.45-6.14.6-12.13,1.2-18.26.75-6.29,3.14-11.68,7.04-16.77l.15-.15c.6-.9,1.2-1.8,1.8-2.69,1.8-1.95,3.74-4.04,5.54-5.99.3-.6.3-1.65.75-1.95ZM485.53,48.68c-.75,3.89-1.05,7.93,1.35,11.68-.45-3.89-.9-7.78-1.35-11.68Z"/>
      <path class="cls-2" d="M534.78,87.3c-2.54,4.34-5.09,8.98-7.93,13.32-1.8,2.99-6.74,4.49-10.33,3.89-2.54-.3-5.09-.6-7.48-1.2-1.2-.3-2.54-1.35-3.44-2.25-3.14-3.89-5.99-8.08-7.19-13.17-2.4-10.78-2.25-21.71,1.5-32.19,2.69-7.49,7.33-13.77,14.22-18.41,1.8-1.2,3.44-2.54,5.24-3.59,5.69-3.44,10.33-1.8,14.07,3.44,5.69,8.08,2.84,22.91-4.04,29.34-4.94,4.49-9.28,10.03-15.42,13.17-1.5.75-2.25,2.1-2.1,3.89.15,2.99.6,5.69,1.95,8.38,1.5,2.84,3.59,3.29,6.14,1.35,5.24-4.19,9.58-9.13,11.98-15.72,1.05-.3,2.25-.6,3.29-.75,1.5,1.05,1.2,2.4.75,3.44-.6,1.95-1.35,3.74-2.1,5.54-.15.3-.45.45-.6.6,0,.15,0,.3.15.3.15-.3.3-.6.45-1.05.3.3.75.45,1.05.75l-.15-.3c0,.45.15.9,0,1.2ZM505.14,51.38c-.45.6-.9,1.05-1.2,1.5-.45.9-.9,1.65-1.05,2.4-.75,2.54-1.35,5.24-1.95,7.79,0,.15,0,.3.15.45.15.15.3,0,.6,0,1.35-3.89,2.54-7.79,3.89-11.83-.15-.15-.3-.15-.45-.3ZM509.78,61.85c.9-2.1,1.5-3.59,2.1-5.09,0,0-.15-.3-.3-.3q-1.5,1.65-1.8,5.39ZM514.27,68.74c4.94-4.34,8.53-9.58,10.48-15.72.3-.75.15-1.8.15-2.7-.15-1.05-1.65-1.65-2.54-1.05-.6.45-1.05.9-1.5,1.5-3.89,5.09-5.99,10.78-7.33,16.92-.15.3.15.6.3.9.15,0,.45.15.45.15ZM528.94,60.66c2.4-2.1,3.44-4.79,3.59-8.53-2.25,2.99-2.84,5.84-3.44,8.68-.6.75-1.35,1.5-1.95,2.25,0,.15,0,0,0,0,1.65,0,1.8-1.2,1.8-2.4Z"/>
    </g>
    <g>
      <path class="cls-1" d="M548.4,132.19c.24-.61.08-1.97-.6-1.69l-.45,2.32,1.05-.63Z"/>
      <path class="cls-1" d="M543.73,127.97c-.79,1.13-1.68,3.12-1.13,5.24.76-2.24.97-1.31,1.79-3.98.68-.28,1.21.73,1.1,1.58.23-.6,1.07.49,1.42-.97-.92-1.78-2.05-1.83-3.2-.34-.26-.51-.02-1.11.03-1.54Z"/>
      <path class="cls-1" d="M476.79,125.38l.44.27c-.12-.15-.27-.23-.44-.27Z"/>
      <path class="cls-1" d="M435.33,124.74c.31-.06.44-.29.46-.5-.29.16-.53.3-.46.5Z"/>
      <path class="cls-1" d="M428.22,122.3c.15.07.28.1.42.15-.16-.21-.32-.33-.42-.15Z"/>
      <path class="cls-1" d="M476.79,125.38l-1.12-.71c-.07.76.58.55,1.12.71Z"/>
      <path class="cls-1" d="M534.59,133.7c.23-.12.42-.33.59-.62-.19.1-.37.19-.56.26-.01.12-.02.22-.03.36Z"/>
      <path class="cls-1" d="M495.03,123.22h.34c.09-.27.18-.59.26-.95l-.6.95Z"/>
      <path class="cls-1" d="M509.05,122.65c-.32-.08-.4,1.89-.51,2.75.17-.81.39-1.2.67-1.36,0-.37-.05-.82-.16-1.39Z"/>
      <path class="cls-1" d="M531.33,125.77l.39-.28c-.1.09-.27.17-.39.28Z"/>
      <path class="cls-1" d="M484.99,122.95c-.03-.29-.08-.55-.14-.7,0,.25.06.48.14.7Z"/>
      <path class="cls-1" d="M91.67,117.28c.08-.12.1-.2.17-.31-.17.13-.26.24-.17.31Z"/>
      <path class="cls-1" d="M83.3,99.45l.22.09c.3-.22.59-.45.86-.69-.35.21-.71.41-1.08.6Z"/>
      <path class="cls-1" d="M415.23,119.98s.03.02.06.04c.34-.23.14-.19-.06-.04Z"/>
      <path class="cls-1" d="M296.38,123.25c1.38,1.74-2.15,2.29-.09,4.21-.2-.77,1.79-3.1.09-4.21Z"/>
      <path class="cls-1" d="M534.23,133.45c-.19.03-.38.05-.57.03.26.06.44.05.57-.03Z"/>
      <path class="cls-1" d="M296.28,127.46v.02s.21.18.21.18c-.09-.08-.14-.13-.21-.2Z"/>
      <path class="cls-1" d="M385.41,121.62c.07.35.19.61.32.86-.01-.2-.09-.45-.32-.86Z"/>
      <path class="cls-1" d="M407.68,124.07l-.55-.25c.22.18.4.23.55.25Z"/>
      <path class="cls-1" d="M373.92,124.57c-.3-.15-.41-.42-.81-.15.04.1.08.17.13.24.14-.27.34-.4.68-.09Z"/>
      <path class="cls-1" d="M361.9,124.76c.07.15.15.26.23.39.12-.03.26-.08.38-.11l-.61-.28Z"/>
      <path class="cls-1" d="M128.2,129.74c-.13-.6-.14-1.24-.11-1.86-.16,1.4-2.06,1.43.11,1.86Z"/>
      <path class="cls-1" d="M534.57,132.59c-.06.5-.16.74-.34.85.14-.02.27-.07.4-.11.03-.29.03-.57-.05-.74Z"/>
      <path class="cls-1" d="M373.68,140.1l-1.91-.26c.54.18,1.23.27,1.91.26Z"/>
      <path class="cls-1" d="M215.42,139.95l-.45.22c.17.05.33,0,.45-.22Z"/>
      <path class="cls-1" d="M366.11,140.21c-.35-.69-.72-1.09-1.1-1.34-.08.15-.16.28-.21.51l1.31.83Z"/>
      <path class="cls-1" d="M128.08,127.86s0,.02,0,.02c0,0,0-.01,0-.02Z"/>
      <path class="cls-1" d="M114.17,128.72c1.82.64,1.63-2.14,2.47-3.43,2.37-.02.43,2.13.78,3.63,1.57-.22,3.28-2.17,4.25-1.76-.04.43.11.64-.27,1.08,1.99-1.6,4.3,1.01,6.62-1.06.07.25.07.48.06.68.05-1.32.35-2.61.64-3.5.81.16,1.88-1.2,1.77.51-.48-.17-.69.48-1.05.93l1.02-.5c.17,2.55-1.36.52-1.8,2.26,1.86-.34,4.24-1.8,5.34-.81-.27,2.38-3.14.02-1.94,2.51l-1.75-1.39c.61,4.03-1.14-.56-.72,3.69,2.47,1.32,3.21-.36,5.67.82.88-1.17.23-1.95,1.11-3.12,4.17-1.57,1.67,6.44,5.06,3.9,1.02-1.41,1.87-4.31,3.49-2.35l-1.17,2.51c2.5.77,2.15-3.48,4.47-1.21-.66.99-2.15.48-1.82.89,1.34,2.44,1.49-1.27,2.8-1.05l-.14,2.39c2.78.05,6.03-1.18,9.08-1.15-.27.67-.89,1.33-.3,2.16,1.98-.3,3.98.11,5.93.77,1.95.62,3.86,1.56,5.61,2.46l1.64-1.89c.32.06.5.99.1,1.35,1.34.93.22-1.29.99-2.01.82-.05.94,1.29.36,1.85,2.72-1.47,7.52-2.89,9.97-.51l-.57.57c2,.98,2.68-4.03,4.43-1.99l-.39.34c4.4,1.2,9.44-.34,12.68,3,.41-1.45,1.49-1.05,2.55-.79,1.05.22,2.07.29,2.31-1.77,2.45,2.12,1.69,2.84,5.24,4.33.96.22,1.53-2.53,2.73-2.92l-.04,2.16,1.69-2.21.78,2.61,1.13-.52c-.44-.14-.92-1-.83-1.62,1.76-.92,4.2,1.64,4.22,2.75l4.16-1.69c-.11.86-.8,1.14-1.36,1.68,2.24-2.13.36,2.29,2.42.33-.26-.49.16-1.29.22-1.72.98,1.3,3.27,1.31,4.96.75l-.34,1.49c3.06.37,6.45-.73,9.87-.71-1.23-.69-.96-3.27.04-3.52l.41,2.28c.64-1.41-1.05-.86.27-2.58,1.28.26.88,2.59.14,3.33l1.55-.8c.1.68-.27,1.04-.35,1.91.63-1.42,2.71,2.28,3.61-.18l.1.68c3.44.02,4.97-.78,7.72-.95.02-1.97,1.11-1.55,1.9-3.15,2.04.6,4.31,2.11,6.75,1.91,1.7-1.01.47-1.67,1.22-2.86.16,1.79,2.59,1.59,1.35,2.89,2.93-.34,3.74-.41,7.42-1.93-.41-.73-.87-1.04-.65-1.65.67-.31,1.54.73,1.46,1.59l-.17.19c4.11-2.75,9.69,5.08,12.94,1.29l-.18.19,3.4-2c1.59.29-.93,1.36.26,2.45,3.65-3.05,5.86.35,8.88-1.69,2.45,5.25,8.38-.5,11.62,2.83l-.21-1.24c.8-1.23,1.01.7,1.62.97-.1-.97-.91-1.11-.41-1.79,6.96-1.61,14.44,1.6,21.61,2.61,2.62.29,1.38-6.47,4.73-3.54l-.9,2.33c5.24-2.86,10.8-.07,15.93-2.5-.3.54-.3,1.23-.8,1.23,1.12,1.66,4.04.02,4.04-1.35.81.14.21,1.24.71,1.93,1.11.97,2.71-2.19,3.32-.52.1.27-.3.55-.5.68.7-.82,3.33.16,2.61-1.77,1.96.89,3.7-.92,5.27.21.97-2.18,3.34.99,3.61-2.08-.09,3.17,3.44,2.5,4.65.99-.4.96,1.08.97.62,2.31,1.4-.07,2.67-.67,2.4-2.3,2.64,3.75,5.14-3.13,6.67,1.7,4.13-1.77,7.96-2.98,11.69-3.78-.08,3.16-4.13.38-3.92,3.69,3.53-1.35,5.53-4.1,9.07-3.39.92.42-.5,1.38-.79,1.92,3.53-1.35,6.86.18,9.99-1.59,0,.29-.34.62-.66.87.62-.11,1.45.44,1.36-.99l-.6.4c-1.03-2.07,2.4-4.39,2.49-5.49-.99,4.13,3.13.99,1.54,6.21.41-.28.91-.96.8-1.92.61.27.81.83.22,1.93,2.22-.82,1.4-2.33,3.42-2.33,0,.7-.4.97-.59,1.79,1-1.37,2.01-2.74,3.72-2.18-.1.42.11.96-.4.96,2.93-.25,4.94-3.68,8.17-2.43-.9,3.03,1.11.98,1.32,3.59l1.72-.81-.71-1.26c1.51.02,2.82-1.9,4.14-1.07l-1.11,1.09,2.83-.54-1.62-.97c1.51-1.37-.22-3.3,1.81-2.61-.41.27,1.51,0,2.33,1.54,0,0,0,0,0,0,.74-.84,1.49-1.73,2.62-1.1.3.83-.19,2.89.01,3.45.7-2.2,3.54-.66,4.43-3-.3.55-.3,1.92-.19,2.2l.59-1.78c.71.56.82.83.72,1.93,2.11.29-.72-3.3,1.8-1.91-.19.15-.1.41-.5.69,2.53.71,4.84-1.2,7.16-.36.72,2.62-2.01.67-1.19,2.88,3.32-.53,6.85-3.26,10.08-2.69l-.61-.28c.39-3.72,2.43,1.8,4.03.02-.39.28-.49,2.07-.39,1.65,2.22.56,4.5-.98,7.83-2.2l-.4.96c1.31.83,3.43.44,4.85.85.4-.96,1.21-.82.7-2.19,4.42,5.36,8.22-3.04,12.14,1.43-.46.02-1.08.85-.72.85l3.26-.93c-.28-1.61-.44-.97-1.15-2.22.4-.97,1.31-1.72,2.12-1.74-1.46,1.09.05,2.6.7,3.49-.11-.49.1-1.04.03-1.55,1.76,2.85.24-3.26,2.6-1.36l-.11.85c.87-.45,1.66-1.58,2.6-1.35.42,1.86-.92.89-.95,2.43,1.32-.13,2.56-3.58,3.78-1.74-.55.53-1.36.55-1.92,1.08,1.34,2.18,1.48,1.62,2.46,1.95l-.1-.05,2.26.96-.58-.59c1.58-4.9,3.36-.94,5.54-4.17-2.12,3.06-.33,1.76-.46,3.88.58.58,1.46,1.23,1.22,1.83,1.03-1.73,1.78,1.32,3.23-1.2.08.68,1.13.05.92,1.77,1.36-.56-.34-1.18-.24-2.04,2.08-2.37,5.01,2.75,8-.5,2.6-1.36,3.05-3.67,5.47-4.85.84,1.08-.63,2.5-.63,2.5,1.34.98,2.33.78,3.57-.02-.24.6.02,1.1.42,1.86,1-.19.63-2.49,1.97-1.51-.21.76-.49,1.99-.96,2.76,1.17-.65,2.32-1.94,3.53-2.57.34,1.18-.71,1.82-1.13,2.6,1.37-.56,3.54-1.13,3.94-3.02l-.89-.66c.5-.1.28,1.61-.08,1.96-1.15,1.49-1.71-.63-1.79-1.31l.86-.45c-.96-3.99-3.49.7-5.24.49l.69-2.92-1.76,2.44c-.39-.75-.68-2.37.18-2.82-1.28-1.42-1.1,1.05-2.2-.54-.12-.25-.07-.39.04-.51l-1.21.89c.23-.62-.24-2.05.52-1.64-2.23-1.65-3.52,2.24-4.38.04l.18-.18c-3.04,1.03-.26,2.14-2.52,4.69l-1.62-5.25-.27,2.14c-.32-.07-.94-.22-.84-1.08-1.15,1.48.21.93-.45,2.32-1.55-1.92-4.17.97-4.57-2.43-.52,1.63,1.47,1.23-.13,2.39-.52-3.65-1.86.66-3.28-1,.4-1.9,1.73-.92.31-2.58-.79,3.21-2.71-.66-3.87-.03-.02,2.54-2.53,1.1-4.48,1.98.11-.86-3.72-1.34-5.56-2.23l.05-.43c-.31,2.58-2.2,2.12-3.57,2.67.03-1.54.27-2.15,1-2.85l-1.29.03c-.29.83-.69,1.27-1.52,1.58l.29-1.93c-1.71.13-3.42,2.32-5.65,1.07-.1,1.79,1.83,4.96-.48,6.2-.1-.97-.21-2.62.39-3.03-.2.13-.7.82-1.11.41l.91-1.64c-1.02-.7-.5,1.37-1.31,1.23,0-1.38-.61-.98-.51-2.08.2-.14.71.56,1.01.01-.91-.23-2.02-1.04-2.4-2.08.09.78.03,1.86-.63,2.05-1.71.13-.61-1.65-1.63-2.35-.4.97-1.51-.01-1.51,2.06-.5,0-.61-.97-.81-1.52-.87.93-4.14.33-3.11,2.51l.23.14s-.09.05-.14.09h0s0,0,0,0c-2.88,2.1-6.07-1.08-8.94-.15v-.69c-1.72.82-3.84.53-5.04,2.03-.51,0-1.22-1.24-1.02-2.07-1.31.54-1.45,1.32-3.37.21,1.31-1.23-.47-1.06,1.34-.9-1.72-.57-2.13-1.67-3.94.25.6-1.78-1.32-2.21-2.13-1.67l1.22,1.25c-.91.27-1.71.13-2.53-.01l.4-2.34c-3.55-2.78-6.24,4.92-8.99.22-.9,1.64,1.92,1.12,1.12,3.04-1.62-.29-3.35-3.61-3.85-3.61-2.23-1.26-2.01,3.43-4.33,2.59.31.82.62,3.04-1.09,3.85-1.62-.28-2.04-3.45-1.03-4.14.39-.08.58.19.56.47.52-.31,1.19-.68.54-1.57l-.2.83c-.81-.84-3.03-.71-2.53-2.08-1.21.81-.5,1.37.41,1.79-2.09-1.17-3.23.01-5.38-.76.35.45.67,1.42.34,1.42-3.14-.98-1.35,1.6-3.46,1.99-1.22-1.25.38-3.03-1.73-1.94-1.31-.84-.31-2.2.2-2.88-1.92,1.63-3.64-1-4.76-1.27l1.01-.69c-.61.41-1.11.4-1.62.41l.61,1.65c-.6-.28-1.11-.28-1.11-.97-.6,1.1.52,2.76-.69,4.26-.81-.83-2.42.94-2.73-1.26,2.53.71-.31-2.21,1.81-2.6-.41.27-.91.27-1.52-.02-.09-.24.08-.46.24-.59-2.44-1.93-1.07,2.51-3.56,2.5.3-1.25-.62-2.35-1.02-2.08,1.01,0,.51,2.07-.39,3.03-1.62-.94-1.73.75-2.57.65l.96.44c-.3,1.25-1.11,1.1-2.22,1.51-.11-.97,1-.68.6-1.1-1.2,2.2-2.84-2.22-4.54-.72-.81-.83-.12-2.33-.83-2.89-1.91,1.64-2.12-1.67-4.14-.31.61,1.66.71,1.25-.7,2.9l3.33-1.23-2.11,2.46c1.01,0,2.11-1.08,2.72-.81-1,1.38-.9.96-.4,2.34-1.42-2.48-2.72,1.5-4.34-.17l-.02-4.14c-2.43-1.8-4.23,2.19-7.37,1.2l1.01.7c-.39,1.65-1.92.26-2.92.94.07-1.38-.57-1.88-1.01-2.73.07,1.02-2.28-.06-2.52,2.71l-1.42-1.8c-2.53-.71-2.81,3.98-5.24,3.55.7-1.51-.41-2.48,1.19-3.57-.81,0-1.54-.24-1.54.71-.49-.86-2.21,1.9-2.97.6-.33.61-.42,2.06-1.33,1.96-.1-.28,0-.68,0-.68,0,.68-1.4.95-.59,2.47-2.56-4.27-6.95.42-9.18-3.25-1.76.49-3.87.97-5.47,1.09.1-.42,0-.69.3-.55-2.23-1.25-1.29,3.99-3.83,2.59-1.32-2.21,1.31-1.23.5-2.06-.42-4.54-3.02.67-4.76-1.96l.4-.27c-1.32-1.52-3.12,1.77-5.24,1.48,0,0,.1-.4,0-.69-1.41,2.34-4.13,3.15-6.15,3.82.6-1.79.91-.96.49-2.76-.91.27.32,2.9-1.49,3.43-.61-.97-1.93-1.8-2.14-3.72l1.71-.13c-.92-2.48-2.22.12-3.13-.3l.1-1.09c-2.62.39-2.61,3.14-5.44,2.99l.31.82c-1.5,2.75-1.32-1.51-2.82.54l-.51-2.76c-1.01.68-3.52,2.73-5.34,3.27,1-2.06,3.12-3.14,4.42-4.38-1.01,0-3.43.26-3.93,1.63.4-.27.9-.96,1.31-.54-1.2,2.19-2.81,3.28-4.83,3.27.27-5.36-5.27-1.27-6.79-5.41-3.52,2.04-7.07-.74-11.21-.35,1.54,4.14-1.21.14-.88,4.41-.96.29-1.33.22-1.42-.05l-2.97-2.51c-.71-1.24.9-.96.8-1.92-2.12-.3-.92-1.8-2.34-2.92.31,1.53-.7,2.2-1.91,1.64l1.73,1.95c-2.92,2.32-2.61-3.55-5.55-1.25l.92-1.36c-1.51.82-5.64.06-7.08,3.52-.28-.49-.66-1.65.01-1.97-3.66-.46-8.07,3.78-10.94,1.71l.26-1.05c-.68.31-1.15,1.98-2.02.94.04-.43.26-1.05-.06-1.11-.35.37-1.78,1.86-2.69,1.26l.75-1.19c-3.59-1.32-5.42,2.95-8.39,3.71-.05-3.08-2.87-4.04-4.27-4.52l.04-.44c-4.17-.3-6.97,2.63-10.77,3.85-2.39-3.34-8.01-1.38-11.79-3.24.58.56-.11,2.4-.79,2.71-.88-.62-2.49,2.15-2.32-.68l.32.05c-.64-2.78-2.48-2.01-3.9-2.11l-.29,3.69c-3.62-5.5-9.84,1.66-11.73-3.22-.93.9-2.04.85-2.97,1.74l.13-1.98c-2.47-.59-3.69-.86-6.78-.51l.7-1.38c-1.71-.23-2.48,5.56-4.09,5.57l-.31-2.99c-3.03-.17-5.88-2.97-9.06-.5.08-.43.24-1.28.73-1.36-1.42-.18-5.3-2.38-5.14,1.71.09-1.32-.68-1.44-1.69-1.09-1.01.32-2.26,1.06-3.13,1.56l.44-1.91c-1.61,2.33-1.72,3-3.71,3.48-.43-.3-.24-1.6.32-1.03-1.41-1.18-1.38,1.71-3.11.47l.82-1.16c-1.54-.32-1.49.36-2.52,1.7-1.08.67-2.91-.82-2.92-2.59-.34,1.04-1.37,2.38-2.23,1.77-.04-.67.35-1.05.54-1.23-2.43-1.57-4.17,1.74-5.69-.42.05-.65-.02-.98-.13-1.2,2.04.36,3.68.73,3.5.84.23-1.78-1.36-2.35.27-4.61-1.48,1.14-4.17,3.7-5.66,2.62-.05-.18-.1-.37-.12-.65l.2-.17c-.34-.23-.7-.12-1.06.13-.47-.37-.76-.64-1.25-.74.04-1.5-1.76-1.08-2.56-1.28-.25,1.95-1.28,1.47-.54,3.23-.11-.16.19-.21.76-.2.13-.04.28-.04.38-.15-.02.05-.05.1-.08.16.55.03,1.26.09,2.07.19-.8.89-1.63,1.61-2.36.39-.63,1.18-1.31,2.39-1.68,2.95-.69-2.88-2.61-4.68-2.61-6.39-2.68.62-5.95-.46-8.27,2.85-.81.32-.6-1.2-.75-1.83.49-.28.96-.12,1.29-.6-1.61.64-4.26-.49-5.17,1.96-1.54-1.5,1.53-2.11-1.03-2.2l.51-.7c-1.92-2.56-4.18-1.49-6.57-.54-1.19.47-2.4.9-3.55.8-1.15-.11-2.28-.67-3.19-2.38.27.43.41.63.36,1.07-2.63-2.06-5.82-2.49-8.99-3.1-3.08-.78-6.19-1.69-8.26-4.55-1.25-1.39-2.07.05-3.56.75l.54-2.08-2.67,1.46c-1.58.3-1.99-1.42-2.5-2.94-.52-1.54-1.16-2.86-3.37-2.18l-.37,1.44c-.83-.82-3.53-1.22-2.48-2.49-.24.16-1.13,1.04-1.1.18l.59-.94c-1.14.04-2.2-.02-3.35-.06-.64-.96.12-1.77.72-2.6.6-.82,1.05-1.67.12-2.62-.26-.08-.67-.09-1.12-.04-.41.05-.9.15-1.39.27-.24.06-.5.11-.7.2-.21.12-.4.22-.53.29-.34.19-.62.34-.71.51.07.18.2,1.18-.58,1.98-.38-.11-.81-.23-1.16-.36-1.3.99-2.81,1.76-3.92,2.8-.58.5-.98,1.17-1.1,2.06-.17.81-.23,1.65.09,2.76,1.08.09,2.09.06,3.1.06l-.43,1.71-1.58-1.22c-.11,1.85,1.33,1.38,2.47,1.12-.38.77-.48,1.42-.31,1.94,1.23-.38,2.43-.79,3.59-1.23-.51,1.21-2.26,1.48-1.46,2.94,1.64-.6.84-2.89,2.72-2.75.02,1.76-.88,2.63.82,2.2-.31.8-.81,1.11-1.42,1.16,1.46-.27,2.66,1.17,4-.03,0,2.12,3.31,1.25,1.74,3.92.65-.49,2.77-1.26,3.66-.93-1.61,1.22-.85,1.73.07,2.27.92.52,1.97,1.13.92,2.82,1.31-1.23,2.51-1.08,3.76-.72,1.24.36,2.53.97,3.93.48-.22.2-.65.61-.77.38,1.07.71,1.04,1.77,1.58,2.64,1.16-2.49,3.22-2.38,4.77-3.59.52,3.03-1.99,2.69-2.43,5.24.71-2.11,3.3-1.12,3.43-3.05.55,1.96.68,1.12.51,3.45,1.32-3.18,1.24-.22,2.83-1.92,1.08,2.11-.59,3.18,1.52,2.76.53,1.27-1.44,1.92-1.44,1.92ZM158.26,132.55s0,.03,0,.04c-.37-.01-.69-.02-.9-.03.19,0,.45,0,.9-.01ZM161.84,133.08c-.43-.14-.97-.24-1.54-.32-.03-.69.21-1.36.56-1.27-.26.42.53.94.98,1.59ZM156.43,118.44c.59-.19.71.22.72.63-.26,0-.57.01-.99.08-.03.06-.08.17-.1.23.11-.36.23-.7.37-.94Z"/>
      <path class="cls-1" d="M155.03,120.83c-.09.03-.14.11-.25.11.08.19.17.35.26.49.1-.2.2-.4.29-.58-.1,0-.21-.01-.3-.02Z"/>
      <path class="cls-1" d="M477.3,125.69l-.08-.04c.06.08.12.15.16.28-.05-.09-.05-.16-.09-.23Z"/>
      <polygon class="cls-1" points="211.36 140.79 211.37 140.29 211.04 140.72 211.36 140.79"/>
      <path class="cls-1" d="M497.07,132.14c.04.17.12.35.27.5-.01-.13-.13-.31-.27-.5Z"/>
      <path class="cls-1" d="M505.57,132.45l1.21.68c-.53-.39-.91-.57-1.21-.68Z"/>
      <path class="cls-1" d="M512.11,133.33c.08-.35.1-.61.11-.85,0,0,0,0-.01-.01l-.1.86Z"/>
      <path class="cls-1" d="M408.35,137.23c-.09.01-.17.04-.25.09-.58.39-.19.23.25-.09Z"/>
      <path class="cls-1" d="M439.16,132.16c-.32.36-.64.72-.98.94.55.14.98.17.98-.94Z"/>
      <path class="cls-1" d="M373.89,140.13s0,0,0-.03c-.07,0-.14,0-.21,0l.21.03Z"/>
      <path class="cls-1" d="M436.75,133.09c.56.38,1.01.29,1.44.01-.45-.12-.99-.32-1.44-.01Z"/>
      <path class="cls-1" d="M540.42,133.79l.32.08c0-.13,0-.24.03-.32l-.35.24Z"/>
      <path class="cls-1" d="M540.77,133.55l.35-.24c-.16,0-.3.02-.35.24Z"/>
      <path class="cls-1" d="M541.84,132.81l-.73.51c.25,0,.57.06.73-.51Z"/>
      <path class="cls-1" d="M531.76,133.01l-.09.72c.05-.15.08-.38.09-.72Z"/>
      <path class="cls-1" d="M529.14,133.26c.63.15,1.6,1.5,2.46,1.04l.07-.57c-.39,1.07-1.96-1.68-2.54-.47Z"/>
      <path class="cls-1" d="M518.04,124.61l2.21.54c-.4-.75-.92-1.77.08-1.97-2.81-2.23.6,1.69-2.29,1.43Z"/>
      <path class="cls-1" d="M511.2,123.61c1.18-.37-.03-1.1.02-1.53-.74.71-.92.88-.02,1.53Z"/>
      <path class="cls-1" d="M461.88,124.36l.09-1.79c-.91.27,0,.69-.09,1.79Z"/>
      <polygon class="cls-1" points="452.6 133.76 453.51 134.85 453.9 133.21 452.6 133.76"/>
      <polygon class="cls-1" points="446.83 121.09 447.22 120.83 445.71 121.5 446.83 121.09"/>
      <path class="cls-1" d="M364.01,122.99l.31,2.2c.61-.4.7-2.88-.31-2.2Z"/>
      <path class="cls-1" d="M328.29,125.79c-.41-1.1-1.43-1.79-2.03-.7.81.14,1.62.99,2.03.7Z"/>
      <polygon class="cls-1" points="221.3 123.42 222.02 122.7 220.68 123.27 221.3 123.42"/>
    </g>
  </g>
</svg>